<svg id="svg" version="1.1" xmlns="http://www.w3.org/2000/svg" xmlns:xlink="http://www.w3.org/1999/xlink" width="400" height="400" viewBox="0, 0, 400,400"><g id="svgg"><path id="path0" d="M390.813 56.676 C 390.806 56.938,390.996 57.274,391.235 57.422 C 391.474 57.569,391.581 58.030,391.472 58.446 C 391.364 58.861,391.438 59.100,391.637 58.977 C 391.837 58.854,392.000 58.528,392.000 58.253 C 392.000 57.604,390.829 56.049,390.813 56.676 M7.600 74.787 C 7.600 75.329,7.791 75.502,8.210 75.341 C 8.681 75.160,8.715 74.980,8.361 74.553 C 7.745 73.810,7.600 73.855,7.600 74.787 M7.785 77.300 C 7.681 77.575,7.641 125.590,7.698 184.000 L 7.800 290.200 8.000 183.500 C 8.110 124.815,8.149 76.800,8.087 76.800 C 8.026 76.800,7.889 77.025,7.785 77.300 M8.997 183.600 C 8.997 241.790,9.043 265.595,9.100 236.500 C 9.157 207.405,9.157 159.795,9.100 130.700 C 9.043 101.605,8.997 125.410,8.997 183.600 M79.688 89.672 C 79.306 90.054,79.200 123.709,79.200 245.080 L 79.200 400.000 182.800 400.000 C 272.456 400.000,286.400 399.923,286.400 399.427 C 286.400 398.803,286.794 398.639,289.800 398.013 C 299.561 395.981,310.860 387.235,316.168 377.600 C 319.370 371.789,320.351 369.090,321.210 363.736 C 322.433 356.114,322.442 128.716,321.220 120.800 C 319.626 110.480,313.949 101.339,305.791 95.960 C 300.271 92.320,299.843 92.135,292.200 90.076 C 289.024 89.220,80.536 88.824,79.688 89.672 M340.666 379.199 C 339.397 380.543,339.696 380.793,341.136 379.594 C 341.650 379.165,342.010 378.630,341.935 378.406 C 341.861 378.182,341.289 378.538,340.666 379.199 M334.502 387.585 C 334.058 388.296,334.094 388.339,334.885 388.047 C 335.883 387.678,336.336 386.800,335.530 386.800 C 335.234 386.800,334.772 387.153,334.502 387.585 M324.198 395.602 C 323.798 396.044,323.556 396.490,323.660 396.593 C 323.925 396.858,325.600 395.635,325.600 395.177 C 325.600 394.557,324.971 394.748,324.198 395.602 " stroke="none" fill="#54acec" fill-rule="evenodd"></path><path id="path1" d="M87.393 23.976 C 85.849 24.120,84.391 24.358,84.153 24.505 C 83.915 24.652,81.605 25.050,79.020 25.389 C 75.613 25.836,74.041 26.225,73.306 26.803 C 72.748 27.241,71.945 27.600,71.521 27.600 C 70.763 27.600,66.362 29.491,64.400 30.660 C 63.850 30.988,62.905 31.463,62.299 31.716 C 61.693 31.969,61.096 32.497,60.972 32.888 C 60.848 33.280,60.609 33.600,60.441 33.600 C 59.807 33.600,54.800 38.786,54.800 39.443 C 54.800 39.821,54.351 40.896,53.802 41.833 C 50.945 46.708,50.957 54.930,53.827 59.153 C 54.362 59.941,54.800 60.769,54.800 60.993 C 54.800 61.811,57.832 63.787,60.580 64.761 L 63.400 65.760 185.200 66.008 C 307.919 66.257,309.316 66.274,310.984 67.563 C 311.213 67.740,312.300 68.104,313.400 68.372 C 314.500 68.641,315.961 69.207,316.647 69.630 C 317.333 70.054,318.161 70.400,318.487 70.400 C 319.165 70.400,324.111 72.958,325.125 73.833 C 325.496 74.153,327.457 75.760,329.483 77.403 C 331.509 79.046,333.353 80.738,333.581 81.164 C 333.808 81.589,334.221 82.177,334.497 82.469 C 335.147 83.156,337.355 86.185,338.593 88.090 C 339.696 89.786,342.000 94.884,342.000 95.628 C 342.000 95.900,342.436 97.044,342.968 98.170 C 343.501 99.296,344.136 101.671,344.379 103.449 C 344.623 105.227,344.997 107.292,345.211 108.038 C 345.736 109.870,345.740 357.271,345.214 359.200 C 345.005 359.970,344.638 362.198,344.399 364.150 C 344.153 366.159,343.605 368.405,343.137 369.324 C 342.131 371.296,342.471 375.653,343.644 375.821 C 344.067 375.881,344.273 375.633,344.244 375.097 C 344.216 374.584,344.480 374.238,344.952 374.168 C 345.512 374.084,345.589 374.171,345.252 374.508 C 344.616 375.144,344.690 375.617,345.385 375.350 C 345.706 375.227,346.079 374.780,346.214 374.357 C 346.348 373.934,346.626 373.693,346.832 373.820 C 347.039 373.947,347.589 373.930,348.056 373.782 C 348.619 373.603,348.747 373.415,348.436 373.222 C 348.099 373.014,348.193 372.658,348.769 371.966 C 349.219 371.426,349.579 371.231,349.587 371.524 C 349.605 372.242,350.389 371.698,350.753 370.714 C 350.917 370.272,351.631 369.666,352.341 369.368 C 353.051 369.070,353.524 369.000,353.392 369.213 C 353.261 369.426,353.307 369.600,353.496 369.600 C 354.079 369.600,354.800 368.677,354.800 367.933 C 354.800 367.536,355.019 367.306,355.300 367.408 C 356.222 367.746,356.935 366.882,357.178 365.134 C 357.385 363.650,357.546 363.413,358.294 363.493 C 358.923 363.559,359.105 363.418,358.942 362.993 C 358.805 362.637,358.947 362.400,359.295 362.400 C 359.615 362.400,360.202 362.040,360.600 361.600 C 360.998 361.160,361.131 360.800,360.895 360.800 C 360.660 360.800,360.376 361.025,360.265 361.300 C 360.113 361.676,360.055 361.667,360.032 361.263 C 360.014 360.967,360.375 360.627,360.832 360.507 C 361.339 360.375,361.607 360.037,361.516 359.645 C 361.435 359.290,361.809 358.550,362.347 358.000 C 362.886 357.450,363.180 357.253,363.001 357.562 C 362.775 357.953,362.826 358.031,363.171 357.818 C 363.459 357.640,363.567 357.124,363.431 356.581 C 363.302 356.068,363.378 355.537,363.599 355.401 C 363.819 355.264,364.000 354.803,364.000 354.376 C 364.000 353.890,364.274 353.600,364.733 353.600 C 365.288 353.600,365.467 353.296,365.467 352.352 C 365.467 351.508,365.773 350.873,366.412 350.391 C 367.199 349.797,367.385 349.235,367.526 347.028 C 367.661 344.903,367.851 344.294,368.485 343.955 C 368.996 343.681,369.204 343.260,369.075 342.765 C 368.965 342.344,369.038 342.100,369.237 342.223 C 369.437 342.346,369.600 342.156,369.600 341.800 C 369.600 341.444,369.420 341.264,369.200 341.400 C 368.980 341.536,368.800 341.356,368.800 341.000 C 368.800 340.644,368.943 340.441,369.118 340.549 C 369.293 340.657,369.465 338.155,369.502 334.989 L 369.567 329.232 368.584 329.606 C 367.822 329.896,367.600 329.851,367.600 329.406 C 367.600 329.091,367.105 328.373,366.500 327.812 L 365.400 326.792 365.188 194.496 C 364.959 52.200,365.008 55.371,363.023 52.272 C 362.716 51.792,362.252 50.590,361.991 49.600 C 361.730 48.610,361.361 47.702,361.169 47.583 C 360.978 47.464,360.411 46.650,359.911 45.774 C 358.007 42.448,357.373 41.465,356.500 40.489 C 356.005 39.936,355.600 39.234,355.600 38.929 C 355.600 38.624,355.304 38.261,354.943 38.123 C 354.581 37.984,352.972 36.595,351.367 35.035 C 348.208 31.966,346.710 30.848,344.144 29.643 C 343.233 29.216,342.376 28.685,342.239 28.464 C 342.103 28.243,341.461 27.945,340.814 27.803 C 340.167 27.661,339.191 27.193,338.644 26.764 C 338.098 26.334,336.608 25.790,335.334 25.554 C 334.059 25.318,332.473 24.827,331.808 24.463 C 330.554 23.775,94.584 23.305,87.393 23.976 M7.600 318.748 C 7.600 343.782,7.652 345.897,8.293 346.811 L 8.986 347.800 9.270 346.200 C 9.616 344.249,9.689 295.592,9.349 293.534 C 9.188 292.564,8.852 292.002,8.353 291.872 C 7.621 291.680,7.600 292.432,7.600 318.748 M366.430 349.310 C 366.381 349.788,365.832 349.696,365.660 349.180 C 365.572 348.916,365.716 348.772,365.980 348.860 C 366.244 348.948,366.447 349.150,366.430 349.310 " stroke="none" fill="#d2dbe1" fill-rule="evenodd"></path><path id="path2" d="M65.600 0.600 C 65.600 1.080,65.000 1.200,62.600 1.200 C 59.667 1.200,59.600 1.222,59.600 2.200 C 59.600 3.159,58.459 3.447,55.749 3.175 C 55.612 3.161,55.292 3.566,55.040 4.075 C 54.662 4.836,54.210 5.021,52.490 5.121 C 51.205 5.195,50.398 5.426,50.394 5.721 C 50.390 6.019,50.228 5.974,49.963 5.600 C 49.676 5.193,49.478 5.147,49.350 5.458 C 49.247 5.709,48.828 5.828,48.419 5.721 C 47.915 5.589,47.592 5.795,47.412 6.363 C 47.172 7.118,46.738 7.375,45.914 7.252 C 44.995 7.115,43.486 8.173,42.998 9.297 C 42.686 10.014,42.424 10.391,42.416 10.135 C 42.391 9.398,41.078 9.791,40.963 10.570 C 40.822 11.535,40.804 11.543,38.787 11.685 C 37.804 11.753,36.997 11.987,36.994 12.205 C 36.981 13.008,36.328 13.600,35.452 13.600 C 34.562 13.600,32.800 14.911,32.800 15.572 C 32.800 15.760,32.372 16.021,31.848 16.152 C 31.324 16.284,30.805 16.738,30.694 17.162 C 30.582 17.589,30.071 17.992,29.546 18.066 C 28.931 18.153,28.556 18.506,28.475 19.076 C 28.388 19.689,28.028 19.989,27.275 20.076 C 26.452 20.171,26.207 20.411,26.232 21.100 C 26.249 21.595,26.069 22.021,25.832 22.046 C 25.594 22.072,25.130 22.117,24.800 22.146 C 24.445 22.178,24.197 22.605,24.192 23.192 C 24.186 23.977,23.977 24.186,23.192 24.192 C 22.469 24.198,22.217 24.403,22.264 24.948 C 22.305 25.438,21.926 25.848,21.166 26.135 C 20.527 26.376,20.025 26.760,20.050 26.987 C 20.156 27.965,19.953 28.361,19.225 28.592 C 18.387 28.858,17.391 31.279,17.743 32.196 C 17.886 32.569,17.761 32.683,17.375 32.535 C 16.650 32.257,15.600 33.081,15.600 33.927 C 15.600 34.273,15.105 35.089,14.500 35.740 C 13.895 36.391,13.670 36.771,14.000 36.585 C 14.504 36.300,14.518 36.348,14.086 36.881 C 13.803 37.230,13.623 37.715,13.686 37.959 C 13.749 38.202,13.350 38.631,12.800 38.912 C 11.876 39.383,11.793 39.661,11.705 42.549 C 11.621 45.359,11.508 45.757,10.602 46.470 C 9.986 46.954,9.585 47.681,9.575 48.332 C 9.300 65.214,9.147 67.715,8.351 68.359 C 7.680 68.902,7.576 69.402,7.678 71.569 C 7.839 74.961,8.701 75.349,8.915 72.127 C 9.060 69.935,9.067 69.957,9.035 72.501 C 9.016 73.986,9.144 75.201,9.320 75.201 C 9.497 75.200,9.616 141.035,9.585 221.500 C 9.528 370.622,9.514 368.992,10.837 369.412 C 11.522 369.629,12.009 373.268,11.632 375.347 C 11.524 375.941,12.791 377.600,13.354 377.600 C 13.695 377.600,13.826 377.930,13.715 378.512 C 13.516 379.549,15.906 382.400,16.973 382.400 C 17.318 382.400,17.615 382.625,17.633 382.900 C 17.819 385.736,18.431 386.804,19.406 385.995 C 19.757 385.703,20.014 385.630,19.975 385.832 C 19.675 387.412,20.051 388.400,20.953 388.400 C 21.582 388.400,21.981 388.683,22.124 389.230 C 22.243 389.686,22.714 390.157,23.170 390.276 C 23.637 390.398,24.000 390.821,24.000 391.241 C 24.000 391.718,24.507 392.201,25.396 392.573 C 26.458 393.016,26.728 393.321,26.526 393.847 C 26.323 394.378,26.417 394.479,26.931 394.282 C 27.299 394.141,27.600 394.189,27.600 394.388 C 27.600 394.588,28.275 394.808,29.100 394.876 C 30.271 394.973,30.574 395.154,30.482 395.700 C 30.418 396.085,30.598 396.427,30.882 396.461 C 31.167 396.494,31.580 396.544,31.800 396.572 C 32.020 396.600,32.687 397.112,33.282 397.711 C 33.987 398.421,34.788 398.800,35.582 398.800 C 36.398 398.800,36.800 398.998,36.800 399.400 C 36.800 400.231,37.501 400.155,37.724 399.300 C 37.898 398.633,37.909 398.633,37.954 399.300 C 37.997 399.956,39.208 400.000,57.400 400.000 L 76.800 400.000 76.805 245.500 C 76.809 110.541,76.884 90.722,77.400 88.800 C 78.130 86.080,78.257 70.203,77.561 68.675 C 77.124 67.715,77.100 67.712,69.061 67.508 C 60.867 67.299,60.288 67.198,57.294 65.449 C 54.963 64.088,51.775 60.508,51.409 58.841 C 51.269 58.202,50.804 56.992,50.377 56.154 C 49.379 54.197,49.301 47.471,50.248 45.000 C 50.586 44.120,51.137 42.525,51.474 41.457 C 52.537 38.078,57.077 32.613,60.325 30.800 C 60.916 30.470,61.545 29.973,61.723 29.695 C 62.083 29.131,67.523 26.400,68.286 26.400 C 68.555 26.400,69.460 26.043,70.297 25.607 C 71.134 25.171,72.805 24.628,74.009 24.401 C 75.214 24.175,76.794 23.709,77.520 23.366 C 79.753 22.313,91.551 21.522,109.800 21.201 C 133.209 20.791,322.850 20.785,325.600 21.196 C 331.518 22.078,334.839 22.820,336.245 23.573 C 337.094 24.028,338.042 24.400,338.352 24.400 C 339.071 24.400,344.621 27.061,346.200 28.163 C 347.649 29.174,349.395 30.469,350.960 31.693 C 353.149 33.406,358.042 38.601,359.347 40.600 C 362.109 44.829,362.690 45.847,363.158 47.268 C 363.424 48.075,363.888 48.941,364.189 49.191 C 364.491 49.441,364.861 50.377,365.012 51.269 C 365.163 52.162,365.672 53.727,366.143 54.746 L 367.000 56.600 367.200 191.667 C 367.310 265.953,367.490 326.814,367.600 326.913 C 369.086 328.244,371.657 328.348,372.205 327.100 C 372.492 326.446,373.037 326.145,374.198 326.000 C 375.507 325.836,375.832 325.620,375.998 324.800 C 376.132 324.134,376.467 323.800,377.000 323.800 C 377.599 323.800,377.803 323.529,377.813 322.720 C 377.821 322.126,377.984 321.496,378.177 321.320 C 378.377 321.138,378.386 321.245,378.199 321.568 C 377.950 321.997,378.040 322.070,378.567 321.868 C 378.951 321.721,379.431 321.600,379.633 321.600 C 379.835 321.600,380.000 321.150,380.000 320.600 C 380.000 319.800,380.200 319.600,381.000 319.600 C 381.733 319.600,382.000 319.387,382.000 318.800 C 382.000 317.621,382.074 317.486,383.279 316.472 C 383.885 315.962,384.364 315.422,384.343 315.272 C 384.208 314.305,384.485 313.600,385.000 313.600 C 385.330 313.600,385.600 313.409,385.600 313.176 C 385.600 312.943,385.780 312.864,386.000 313.000 C 386.567 313.350,386.497 312.664,385.900 312.021 C 385.495 311.585,385.508 311.544,385.968 311.807 C 386.390 312.048,386.470 311.960,386.281 311.466 C 386.120 311.048,386.226 310.800,386.564 310.800 C 387.681 310.800,388.202 309.450,388.400 306.041 C 388.581 302.933,388.678 302.600,389.400 302.600 C 390.305 302.600,390.310 302.575,390.618 296.619 C 390.787 293.340,390.963 292.508,391.612 291.903 C 392.869 290.732,392.854 57.654,391.597 56.397 C 390.827 55.627,390.425 51.680,390.425 44.897 C 390.425 43.891,390.195 43.489,389.413 43.133 C 388.432 42.686,388.400 42.551,388.400 38.849 C 388.400 35.299,388.331 34.966,387.431 34.193 C 386.842 33.687,386.411 32.826,386.331 31.996 C 386.228 30.927,385.983 30.577,385.200 30.380 C 384.650 30.242,384.254 29.894,384.319 29.607 C 384.571 28.505,383.893 26.735,383.109 26.445 C 382.544 26.235,382.260 25.726,382.186 24.785 C 382.116 23.888,381.727 23.147,381.040 22.599 C 380.468 22.143,380.000 21.372,380.000 20.885 C 380.000 20.208,379.765 20.000,379.000 20.000 C 378.210 20.000,378.000 19.798,378.000 19.035 C 378.000 18.240,377.822 18.090,376.987 18.182 C 376.430 18.243,376.070 18.196,376.188 18.078 C 376.306 17.960,376.114 17.422,375.760 16.883 C 375.375 16.295,375.319 16.026,375.620 16.213 C 375.957 16.421,376.024 16.362,375.821 16.035 C 375.655 15.766,375.269 15.641,374.964 15.758 C 374.659 15.875,374.427 15.843,374.448 15.686 C 374.547 14.953,373.851 13.600,373.376 13.600 C 373.084 13.600,372.570 13.206,372.232 12.725 C 371.895 12.244,371.331 11.807,370.978 11.756 C 369.708 11.569,369.217 11.220,369.434 10.656 C 369.744 9.849,368.886 9.430,368.160 10.033 C 367.827 10.309,367.586 10.370,367.625 10.168 C 367.776 9.373,367.582 8.764,367.245 8.972 C 367.050 9.093,366.915 8.878,366.945 8.496 C 366.985 7.987,366.543 7.699,365.300 7.423 C 364.365 7.216,363.600 6.888,363.600 6.695 C 363.600 5.862,362.343 5.045,361.970 5.635 C 361.679 6.094,361.611 6.098,361.606 5.657 C 361.603 5.359,361.375 5.199,361.100 5.302 C 360.238 5.625,359.004 4.954,359.002 4.160 C 359.000 3.580,358.686 3.384,357.676 3.334 C 356.803 3.290,356.048 2.915,355.463 2.234 C 354.741 1.394,354.221 1.200,352.687 1.200 C 351.276 1.200,350.800 1.049,350.800 0.600 C 350.800 0.270,350.620 0.000,350.400 0.000 C 350.180 0.000,350.000 0.270,350.000 0.600 C 350.000 0.930,349.730 1.200,349.400 1.200 C 349.070 1.200,348.800 0.930,348.800 0.600 C 348.800 0.068,332.800 0.000,207.200 0.000 C 81.600 0.000,65.600 0.068,65.600 0.600 M391.627 57.250 C 391.964 57.879,391.965 58.321,391.634 58.950 C 391.305 59.573,391.214 90.395,391.293 174.462 C 391.352 237.526,391.265 289.040,391.100 288.938 C 390.546 288.596,390.735 59.693,391.290 58.805 C 391.677 58.185,391.677 57.917,391.290 57.530 C 390.803 57.043,390.630 56.400,390.986 56.400 C 391.088 56.400,391.377 56.783,391.627 57.250 M360.243 361.669 C 360.357 361.854,360.169 362.114,359.825 362.246 C 359.481 362.378,359.200 362.653,359.200 362.857 C 359.200 363.380,360.658 362.547,360.915 361.878 C 361.030 361.578,360.879 361.333,360.579 361.333 C 360.280 361.333,360.129 361.485,360.243 361.669 M350.211 371.583 C 350.081 371.793,349.734 371.873,349.440 371.760 C 349.131 371.641,348.815 371.899,348.692 372.370 C 348.516 373.045,348.599 373.122,349.172 372.815 C 349.916 372.417,351.046 371.200,350.673 371.200 C 350.549 371.200,350.341 371.372,350.211 371.583 M336.998 384.552 C 336.310 385.055,336.448 386.000,337.210 386.000 C 337.735 386.000,338.465 384.487,338.060 384.237 C 337.872 384.121,337.394 384.263,336.998 384.552 M331.527 390.600 C 331.277 391.150,330.830 391.600,330.536 391.600 C 330.241 391.600,330.000 391.751,330.000 391.936 C 330.000 392.120,329.575 392.465,329.056 392.702 C 328.536 392.939,328.016 393.494,327.901 393.937 C 327.607 395.060,329.274 394.309,329.816 393.074 C 330.027 392.593,330.560 392.200,331.000 392.200 C 331.534 392.200,331.814 391.919,331.843 391.354 C 331.866 390.889,332.012 390.304,332.166 390.054 C 332.321 389.804,332.343 389.600,332.215 389.600 C 332.087 389.600,331.778 390.050,331.527 390.600 M316.000 399.400 C 316.000 399.819,316.422 400.000,317.400 400.000 C 318.378 400.000,318.800 399.819,318.800 399.400 C 318.800 398.981,318.378 398.800,317.400 398.800 C 316.422 398.800,316.000 398.981,316.000 399.400 " stroke="none" fill="#24649c" fill-rule="evenodd"></path><path id="path3" d="M348.800 0.600 C 348.800 0.930,348.980 1.200,349.200 1.200 C 349.420 1.200,349.600 0.930,349.600 0.600 C 349.600 0.270,349.420 0.000,349.200 0.000 C 348.980 0.000,348.800 0.270,348.800 0.600 M107.800 21.225 C 91.526 21.491,79.726 22.325,77.520 23.366 C 76.794 23.709,75.214 24.175,74.009 24.401 C 72.805 24.628,71.134 25.171,70.297 25.607 C 69.460 26.043,68.555 26.400,68.286 26.400 C 67.523 26.400,62.083 29.131,61.723 29.695 C 61.545 29.973,60.916 30.470,60.325 30.800 C 57.077 32.613,52.537 38.078,51.474 41.457 C 51.137 42.525,50.586 44.120,50.248 45.000 C 49.301 47.471,49.379 54.197,50.377 56.154 C 50.804 56.992,51.269 58.202,51.409 58.841 C 51.775 60.508,54.963 64.088,57.294 65.449 C 60.288 67.198,60.867 67.299,69.061 67.508 C 77.100 67.712,77.124 67.715,77.561 68.675 C 78.257 70.203,78.130 86.080,77.400 88.800 C 76.884 90.722,76.809 110.541,76.805 245.500 L 76.800 400.000 78.000 400.000 L 79.200 400.000 79.200 245.049 C 79.200 113.970,79.285 90.028,79.751 89.641 C 80.738 88.821,289.127 89.248,292.200 90.076 C 299.842 92.134,300.271 92.320,305.791 95.960 C 313.949 101.339,319.626 110.480,321.220 120.800 C 322.442 128.716,322.433 356.114,321.210 363.736 C 320.351 369.090,319.370 371.789,316.168 377.600 C 310.860 387.235,299.561 395.981,289.800 398.013 C 286.794 398.639,286.400 398.803,286.400 399.427 C 286.400 399.914,288.621 400.000,301.200 400.000 C 314.089 400.000,316.000 399.923,316.000 399.400 C 316.000 398.962,316.458 398.799,317.700 398.795 C 320.112 398.787,321.289 398.409,321.027 397.727 C 320.907 397.412,320.986 397.268,321.205 397.403 C 321.422 397.537,321.600 397.457,321.600 397.224 C 321.600 396.991,321.979 396.800,322.442 396.800 C 322.906 396.800,323.634 396.357,324.060 395.815 C 324.499 395.257,325.456 394.713,326.269 394.561 C 327.187 394.388,327.773 394.023,327.898 393.546 C 328.006 393.136,328.339 392.800,328.639 392.800 C 329.388 392.800,331.828 390.373,332.173 389.286 C 332.327 388.799,332.718 388.400,333.040 388.400 C 333.677 388.400,336.400 385.857,336.400 385.262 C 336.400 385.062,336.770 384.651,337.222 384.349 C 337.929 383.877,338.234 383.226,338.369 381.900 C 338.386 381.735,338.670 381.600,339.000 381.600 C 339.330 381.600,339.623 381.420,339.650 381.200 C 339.830 379.756,340.835 378.084,341.649 377.871 C 342.620 377.617,342.601 376.536,341.586 374.166 C 340.650 371.985,340.938 369.527,342.534 366.075 L 343.400 364.200 343.510 235.400 C 343.620 105.913,343.587 102.442,342.242 100.274 C 341.944 99.793,341.492 98.500,341.237 97.400 C 340.983 96.300,340.513 94.860,340.194 94.200 C 339.875 93.540,339.337 92.370,338.999 91.600 C 338.320 90.057,336.782 87.443,335.820 86.200 C 333.237 82.861,330.959 80.148,330.507 79.872 C 330.033 79.582,329.009 78.682,326.735 76.555 C 325.701 75.589,321.880 73.200,321.367 73.200 C 321.115 73.200,320.476 72.860,319.948 72.445 C 319.420 72.029,318.294 71.498,317.446 71.264 C 316.599 71.030,315.597 70.559,315.220 70.218 C 314.843 69.877,313.469 69.401,312.167 69.161 C 310.865 68.921,309.170 68.427,308.400 68.062 C 307.110 67.452,297.430 67.382,185.000 67.175 C 86.553 66.993,62.691 66.849,61.400 66.430 C 44.964 61.095,47.358 37.255,65.200 28.590 C 71.547 25.508,79.321 23.369,86.400 22.759 C 93.979 22.105,321.534 21.760,327.400 22.393 C 333.650 23.068,344.453 27.176,347.862 30.173 C 348.268 30.530,349.770 31.784,351.200 32.960 C 355.121 36.184,358.673 40.385,360.808 44.323 C 361.248 45.135,361.771 46.070,361.970 46.400 C 363.064 48.216,364.459 51.891,365.463 55.600 L 366.600 59.800 366.800 193.200 C 366.910 266.570,367.154 326.915,367.343 327.300 C 367.531 327.685,368.071 327.995,368.543 327.988 C 369.385 327.976,369.386 327.968,368.600 327.529 C 368.160 327.283,367.710 327.004,367.600 326.908 C 367.490 326.812,367.310 265.953,367.200 191.667 L 367.000 56.600 366.143 54.746 C 365.672 53.727,365.163 52.162,365.012 51.269 C 364.861 50.377,364.491 49.441,364.189 49.191 C 363.888 48.941,363.424 48.075,363.158 47.268 C 362.690 45.847,362.109 44.829,359.347 40.600 C 358.042 38.601,353.149 33.406,350.960 31.693 C 349.395 30.469,347.649 29.174,346.200 28.163 C 344.621 27.061,339.071 24.400,338.352 24.400 C 338.042 24.400,337.094 24.028,336.245 23.573 C 334.839 22.820,331.518 22.078,325.600 21.196 C 323.090 20.821,130.930 20.847,107.800 21.225 M390.997 174.000 C 390.997 237.250,391.043 263.125,391.100 231.500 C 391.156 199.875,391.156 148.125,391.100 116.500 C 391.043 84.875,390.997 110.750,390.997 174.000 M8.734 72.201 C 8.660 73.631,8.735 74.801,8.900 74.801 C 9.065 74.800,9.200 73.630,9.200 72.200 C 9.200 68.843,8.907 68.843,8.734 72.201 M8.221 75.700 C 7.922 76.671,8.140 77.600,8.666 77.600 C 9.108 77.600,9.216 95.708,9.300 183.900 L 9.401 290.200 9.501 182.700 C 9.590 86.389,9.536 75.200,8.987 75.200 C 8.651 75.200,8.306 75.425,8.221 75.700 " stroke="none" fill="#408ec6" fill-rule="evenodd"></path><path id="path4" d="M102.800 22.423 C 93.230 22.573,84.500 22.821,83.400 22.973 C 78.344 23.672,70.067 26.226,65.200 28.590 C 47.358 37.255,44.964 61.095,61.400 66.430 C 62.691 66.849,86.553 66.993,185.000 67.175 C 297.430 67.382,307.110 67.452,308.400 68.062 C 309.170 68.427,310.865 68.921,312.167 69.161 C 313.469 69.401,314.843 69.877,315.220 70.218 C 315.597 70.559,316.599 71.030,317.446 71.264 C 318.294 71.498,319.420 72.029,319.948 72.445 C 320.476 72.860,321.115 73.200,321.367 73.200 C 321.880 73.200,325.701 75.589,326.735 76.555 C 329.009 78.682,330.033 79.582,330.507 79.872 C 330.959 80.148,333.237 82.861,335.820 86.200 C 336.782 87.443,338.320 90.057,338.999 91.600 C 339.337 92.370,339.875 93.540,340.194 94.200 C 340.513 94.860,340.983 96.300,341.237 97.400 C 341.492 98.500,341.944 99.793,342.242 100.274 C 343.587 102.442,343.620 105.913,343.510 235.400 L 343.400 364.200 342.534 366.075 C 340.947 369.507,340.651 371.987,341.571 374.133 C 342.680 376.720,343.114 376.465,342.669 373.488 C 342.339 371.276,342.394 370.780,343.130 369.338 C 343.606 368.405,344.152 366.173,344.399 364.150 C 344.638 362.198,345.005 359.970,345.214 359.200 C 345.740 357.271,345.736 109.870,345.211 108.038 C 344.997 107.292,344.623 105.227,344.379 103.449 C 344.136 101.671,343.501 99.296,342.968 98.170 C 342.436 97.044,342.000 95.900,342.000 95.628 C 342.000 94.884,339.696 89.786,338.593 88.090 C 337.355 86.185,335.147 83.156,334.497 82.469 C 334.221 82.177,333.808 81.589,333.581 81.164 C 333.353 80.738,331.509 79.046,329.483 77.403 C 327.457 75.760,325.496 74.153,325.125 73.833 C 324.111 72.958,319.165 70.400,318.487 70.400 C 318.161 70.400,317.333 70.054,316.647 69.630 C 315.961 69.207,314.500 68.641,313.400 68.372 C 312.300 68.104,311.213 67.740,310.984 67.563 C 309.316 66.274,307.919 66.257,185.200 66.008 L 63.400 65.760 60.580 64.761 C 57.832 63.787,54.800 61.811,54.800 60.993 C 54.800 60.769,54.362 59.941,53.827 59.153 C 50.957 54.930,50.945 46.708,53.802 41.833 C 54.351 40.896,54.800 39.821,54.800 39.443 C 54.800 38.786,59.807 33.600,60.441 33.600 C 60.609 33.600,60.848 33.280,60.972 32.888 C 61.096 32.497,61.693 31.969,62.299 31.716 C 62.905 31.463,63.850 30.988,64.400 30.660 C 66.362 29.491,70.763 27.600,71.521 27.600 C 71.945 27.600,72.748 27.241,73.306 26.803 C 74.036 26.228,75.597 25.838,78.890 25.406 C 81.404 25.076,84.077 24.580,84.831 24.303 C 87.224 23.424,330.200 23.580,331.808 24.463 C 332.473 24.827,334.059 25.318,335.334 25.554 C 336.608 25.790,338.098 26.334,338.644 26.764 C 339.191 27.193,340.167 27.661,340.814 27.803 C 341.461 27.945,342.103 28.243,342.239 28.464 C 342.376 28.685,343.233 29.216,344.144 29.643 C 346.710 30.848,348.208 31.966,351.367 35.035 C 352.972 36.595,354.581 37.984,354.943 38.123 C 355.304 38.261,355.600 38.624,355.600 38.929 C 355.600 39.234,356.005 39.936,356.500 40.489 C 357.373 41.465,358.007 42.448,359.911 45.774 C 360.411 46.650,360.978 47.464,361.169 47.583 C 361.361 47.702,361.730 48.610,361.991 49.600 C 362.252 50.590,362.716 51.792,363.023 52.272 C 365.008 55.371,364.959 52.200,365.188 194.496 L 365.400 326.792 366.500 327.812 C 367.105 328.373,367.600 329.050,367.600 329.316 C 367.600 330.263,369.437 329.864,369.517 328.900 C 369.575 328.198,369.382 328.000,368.638 328.000 C 368.114 328.000,367.531 327.685,367.343 327.300 C 367.154 326.915,366.910 266.570,366.800 193.200 L 366.600 59.800 365.463 55.600 C 364.459 51.891,363.064 48.216,361.970 46.400 C 361.771 46.070,361.248 45.135,360.808 44.323 C 358.673 40.385,355.121 36.184,351.200 32.960 C 349.770 31.784,348.266 30.528,347.857 30.168 C 344.770 27.451,334.485 23.359,328.800 22.586 C 324.258 21.969,140.046 21.836,102.800 22.423 M8.000 184.800 C 8.000 277.615,8.077 292.000,8.573 292.000 C 8.889 292.000,9.231 292.495,9.335 293.100 C 9.438 293.705,9.429 293.120,9.314 291.800 C 9.199 290.480,9.081 241.745,9.052 183.500 C 9.011 99.075,8.899 77.600,8.500 77.600 C 8.101 77.600,8.000 99.307,8.000 184.800 " stroke="none" fill="#90acc8" fill-rule="evenodd"></path></g></svg>